<?xml version="1.0" encoding="utf-8"?>
<!-- Generator: Adobe Illustrator 23.1.1, SVG Export Plug-In . SVG Version: 6.00 Build 0)  -->
<svg version="1.1" id="Layer_1" xmlns="http://www.w3.org/2000/svg" xmlns:xlink="http://www.w3.org/1999/xlink" x="0px" y="0px"
	 viewBox="0 0 422.9 80.7" style="enable-background:new 0 0 422.9 80.7;" xml:space="preserve">
<style type="text/css">
	.st0{fill:#5D1725;}
	.st1{fill:#FFFFFF;}
	.st2{fill:#772124;}
</style>
<g>
	<g>
		<polyline class="st0" points="112.4,6.8 112.4,76.6 114.5,76.6 114.5,6.8 		"/>
	</g>
	<g>
		<g>
			<path class="st0" d="M147,38.4v-9.8l-4.7,8.6l-4.7-8.6v9.8l1.5,1v2.9h-7.5v-2.9l1.5-1V24.5l-1.5-1v-2.9h6.5l4.2,7.7l4.3-7.7h6.4
				v2.9l-1.5,1v13.9l1.5,1v2.9h-7.5v-2.9L147,38.4z"/>
			<path class="st0" d="M165.1,42.3h-8v-2.9l1.5-1V24.5l-1.5-1v-2.9h8v2.9l-1.5,1v13.9l1.5,1V42.3z"/>
			<path class="st0" d="M183.2,23.8l0.3,0.3v2.4h-4.9v-1L178,25h-3.4l-0.6,0.5v3.1l0.1,0.1h6.7l2.3,2.4l0.3,0.3v7l-3.3,3.7h-7.7
				l-3-3.4l-0.3-0.3v-3h4.9v1.7l0.6,0.8h3.3l0.7-0.8V33l-0.1-0.1h-6.9l-2.4-2.9v-5.8l2.9-3.2l0.3-0.4h7.8L183.2,23.8z"/>
			<path class="st0" d="M201.6,23.8l0.3,0.3v2.4H197v-1l-0.6-0.5H193l-0.6,0.5v3.1l0.1,0.1h6.7l2.3,2.4l0.3,0.3v7l-3.3,3.7h-7.7
				l-3-3.4l-0.3-0.3v-3h4.9v1.7l0.6,0.8h3.3l0.7-0.8V33l-0.1-0.1H190l-2.4-2.9v-5.8l2.9-3.2l0.3-0.4h7.8L201.6,23.8z"/>
			<path class="st0" d="M213.9,42.3h-8v-2.9l1.5-1V24.5l-1.5-1v-2.9h8v2.9l-1.5,1v13.9l1.5,1V42.3z"/>
			<path class="st0" d="M232.1,23.8l0.3,0.3v2.4h-4.9v-1l-0.6-0.5h-3.4l-0.6,0.5v3.1l0.1,0.1h6.7l2.3,2.4l0.3,0.3v7l-3.3,3.7h-7.7
				l-3-3.4l-0.3-0.3v-3h4.9v1.7l0.6,0.8h3.3l0.7-0.8V33l-0.1-0.1h-6.9L218,30v-5.8l2.9-3.2l0.3-0.4h7.8L232.1,23.8z"/>
			<path class="st0" d="M250.5,23.8l0.3,0.3v2.4h-4.9v-1l-0.6-0.5h-3.4l-0.6,0.5v3.1l0.1,0.1h6.7l2.3,2.4l0.3,0.3v7l-3.3,3.7h-7.7
				l-3-3.4l-0.3-0.3v-3h4.9v1.7L242,38h3.3l0.7-0.8V33l-0.1-0.1h-6.9l-2.4-2.9v-5.8l2.9-3.2l0.3-0.4h7.8L250.5,23.8z"/>
			<path class="st0" d="M262.8,42.3h-8v-2.9l1.5-1V24.5l-1.5-1v-2.9h8v2.9l-1.5,1v13.9l1.5,1V42.3z"/>
			<path class="st0" d="M282.3,23.9l0.3,0.3v7l-3,3.2l-0.3,0.4h-5.9v3.6l1.6,1v2.9h-8.1v-2.9l1.5-1V24.5l-1.5-1v-2.9h12.3
				L282.3,23.9z M277.7,25.6l-0.5-0.6h-3.8v5.4h3.8l0.5-0.6V25.6z"/>
			<path class="st0" d="M301.4,23.9l0.3,0.3v7l-3,3.2l-0.3,0.4h-5.9v3.6l1.6,1v2.9H286v-2.9l1.5-1V24.5l-1.5-1v-2.9h12.3L301.4,23.9
				z M296.8,25.6l-0.5-0.6h-3.8v5.4h3.8l0.5-0.6V25.6z"/>
			<path class="st0" d="M313.1,42.3h-8v-2.9l1.5-1V24.5l-1.5-1v-2.9h8v2.9l-1.5,1v13.9l1.5,1V42.3z"/>
			<path class="st0" d="M342,23.8l0.3,0.3v2.4h-4.9v-1l-0.6-0.5h-3.4l-0.6,0.5v3.1l0.1,0.1h6.7l2.3,2.4l0.3,0.3v7l-3.3,3.7h-7.7
				l-3-3.4l-0.3-0.3v-3h4.9v1.7l0.6,0.8h3.3l0.7-0.8V33l-0.1-0.1h-6.9L328,30v-5.8l2.9-3.2l0.3-0.4h7.8L342,23.8z"/>
			<path class="st0" d="M345.4,20.5h17.4v6.9h-4V25h-2.3v13.4l1.5,1v2.9h-7.9v-2.9l1.5-1V25h-2.2v2.4h-4V20.5z"/>
			<path class="st0" d="M380.6,39.4v2.9H373v-2.9l1.5-0.9l-0.9-3h-5.1l-1,3l1.5,0.9v2.9h-7.2v-2.8l1.4-1.1l5.3-17l0.2-0.8h5
				l5.3,17.8L380.6,39.4z M372.7,32.6l-1.6-5.4l-1.7,5.4L372.7,32.6z"/>
			<path class="st0" d="M379.4,20.5h17.4v6.9h-4V25h-2.3v13.4l1.5,1v2.9h-7.9v-2.9l1.5-1V25h-2.2v2.4h-4V20.5z"/>
			<path class="st0" d="M400,20.5h15.9v6.8h-4.9V25h-4.5v4.2h5.2v4.1h-5.2v4.6h4.5v-1.6h4.9v6H400v-2.9l1.5-1V24.5l-1.5-1V20.5z"/>
		</g>
		<g>
			<path class="st0" d="M194.8,51.5v6c0,0.3,0,0.6,0,0.9c0,0.2,0,0.4,0.1,0.5c0,0.3,0.2,0.5,0.3,0.7c0.4,0.5,0.9,0.7,1.5,0.7
				c0.7,0,1.2-0.2,1.6-0.7c0.2-0.2,0.3-0.5,0.3-0.7c0-0.1,0-0.3,0.1-0.5c0-0.2,0-0.5,0-0.8v-6h2.9v6.4c0,0.9-0.1,1.6-0.3,2.2
				c-0.2,0.5-0.5,1.1-1,1.5c-0.9,0.8-2.1,1.3-3.5,1.3c-1.6,0-2.8-0.4-3.6-1.3c-0.4-0.4-0.7-0.9-0.8-1.4c-0.2-0.6-0.3-1.3-0.3-2.2
				v-6.4H194.8z"/>
			<path class="st0" d="M211.7,62.5v-11h2.9l5.3,6.7v-6.7h2.9v11h-2.9l-5.3-6.7v6.7H211.7z"/>
			<path class="st0" d="M235.7,51.5v11h-2.9v-11H235.7z"/>
			<path class="st0" d="M247.8,51.5l2.7,6.7l2.7-6.7h3.1l-4.7,11h-2.2l-4.6-11H247.8z"/>
			<path class="st0" d="M271.5,53.9h-3.4v1.8h3.2v2.4h-3.2v1.9h3.4v2.4h-6.3v-11h6.3V53.9z"/>
			<path class="st0" d="M286.8,58l3.5,4.5h-3.6l-2.7-4.2v4.2h-2.9v-11h4.5c1.3,0,2.3,0.4,2.9,1.2c0.5,0.6,0.8,1.4,0.8,2.2
				c0,0.8-0.2,1.5-0.6,2C288.2,57.5,287.6,57.8,286.8,58z M284,56.4h0.5c0.6,0,1-0.1,1.3-0.4c0.3-0.2,0.5-0.6,0.5-1s-0.2-0.8-0.5-1
				c-0.3-0.2-0.7-0.4-1.3-0.4H284V56.4z"/>
			<path class="st0" d="M306.5,52.1l-1.1,2.2c-0.6-0.5-1.2-0.7-1.9-0.7c-0.4,0-0.6,0.1-0.9,0.3c-0.2,0.2-0.4,0.4-0.4,0.7
				c0,0.3,0.2,0.5,0.5,0.7c0.2,0.1,0.6,0.3,1.5,0.5c1,0.3,1.6,0.7,2.1,1.1c0.4,0.5,0.6,1.1,0.6,1.9c0,1.2-0.4,2.2-1.1,2.9
				c-0.7,0.7-1.8,1-3.2,1c-1.4,0-2.6-0.4-3.8-1.2l1.2-2.3c0.8,0.7,1.7,1.1,2.5,1.1c0.2,0,0.4,0,0.6-0.1c0.2-0.1,0.3-0.1,0.4-0.2
				c0.1-0.1,0.2-0.2,0.3-0.3c0.1-0.1,0.1-0.3,0.1-0.4c0-0.3-0.1-0.5-0.4-0.7c-0.2-0.2-0.7-0.4-1.4-0.6c-1.1-0.3-1.8-0.6-2.1-0.9
				c-0.6-0.5-0.9-1.2-0.9-2.2c0-1.1,0.3-2,1-2.7c0.7-0.7,1.6-1,2.7-1C304.2,51.2,305.4,51.5,306.5,52.1z"/>
			<path class="st0" d="M319.5,51.5v11h-2.9v-11H319.5z"/>
			<path class="st0" d="M333.7,53.9v8.6h-2.9v-8.6h-2.3v-2.4h7.6v2.4H333.7z"/>
			<path class="st0" d="M348.6,57.2l-4-5.7h3.4l2.1,3l2-3h3.5l-4.1,5.7v5.3h-2.9V57.2z"/>
		</g>
	</g>
	<g>
		<path class="st0" d="M80.5,27.7c5.3,2,10.3,4.6,14.9,7.6L92,42.6l4.1,13.1c-3.1-2-6.2-3.8-9-5.2l0,7.2c-2.1-1.2-4.3-2.4-6.7-3.4v3
			l3.2,4.8v6.6H62.2V49.1c-0.8-0.1-1.6-0.2-2.3-0.3L51.5,62l-8.3-13.2c-0.8,0.1-1.6,0.2-2.3,0.3v19.6H19.4v-6.6l3.2-4.8v-3
			c-2.3,1-4.6,2.2-6.7,3.4v-7.2c-2.8,1.4-5.9,3.2-9,5.2L11,42.6l-3.4-7.3c4.6-3,9.6-5.6,14.9-7.6v-1.6L19.3,21v-6.4h20.1l7.8,12.1
			c1.4-0.1,2.8-0.1,4.2-0.1c1.4,0,2.8,0,4.2,0.1l7.8-12.1h20.1V21l-3.2,5.1V27.7z"/>
		<path class="st1" d="M22.5,30c-4.4,1.7-8.4,3.7-12.2,6.1l2.9,6.4l-2.6,8.4c1.7-1,3.5-1.9,5.2-2.8V35.6c2-1,5-2.5,6.7-3.2V30z"/>
		<path class="st1" d="M51.5,46.1c11.2,0,23.1,2.9,33.3,8V37c-10.2-5.3-22.1-8.2-33.3-8.2c-11.2,0-23.1,2.9-33.3,8.2v17
			C28.3,48.9,40.3,46.1,51.5,46.1z"/>
		<path class="st1" d="M80.5,30c4.4,1.7,8.4,3.7,12.2,6.1l-2.9,6.4l2.6,8.4c-1.7-1-3.5-1.9-5.2-2.8V35.6c-2-1-5-2.5-6.7-3.2V30z"/>
		<g>
			<path class="st0" d="M45.2,35c-0.7,0.1-1.4,0.1-2.1,0.2v-1.4L40.8,34v8.1c0,0,1-0.1,1-0.1v2.1c-1.6,0.2-3.2,0.5-4.7,0.8v-2.1
				l1-0.2c0,0,0-8.1,0-8.1l-2.2,0.4v1.4c-0.7,0.1-1.4,0.3-2,0.5v-3.5c3.7-0.9,7.5-1.6,11.3-1.9V35z M32.2,36.8
				c-0.9,0.2-1.7,0.5-2.6,0.8v-0.9l-3.7,1.3v2.8c0,0,3.4-1.2,4.8-1.7l1.5,1v4l-2.1,2.7c-1.6,0.5-3.2,1.1-4.8,1.7
				c-0.6-0.4-1.3-0.8-1.9-1.2v-1.5c0.8-0.4,1.7-0.7,2.5-1v1.5l0.4-0.1c1-0.4,3.4-1.2,3.4-1.2v-3.6c0,0-3.5,1.2-4.9,1.7l-1.4-0.9
				v-3.3l2-2.8c1.6-0.6,3.2-1.2,4.8-1.7c0.7,0.4,1.3,0.9,2,1.3V36.8z M67.3,36.6c-0.7-0.2-1.4-0.3-2-0.4v-1.4L63,34.3v8.1
				c0,0,1,0.2,1,0.2v2.1c-1.6-0.3-3.2-0.5-4.8-0.7v-2.1l1,0.1c0,0,0-8.1,0-8.1l-2.2-0.3V35c-0.7-0.1-1.4-0.1-2.1-0.2v-3.6
				c3.8,0.3,7.6,0.8,11.3,1.7V36.6z M72.8,36.6v3c0,0,2.4,0.8,3.5,1.2v1.9c-1-0.4-3.5-1.2-3.5-1.2v3.2l3.7,1.3v-0.9
				c0.8,0.3,1.7,0.7,2.5,1v3c-3.2-1.3-6.5-2.5-9.9-3.3v-2.1l1.1,0.3c0,0,0-8.1,0-8.1c0,0-1.1-0.3-1.1-0.3v-2.1
				c3.3,0.9,6.7,2,9.9,3.4v2.8c-0.8-0.4-1.7-0.7-2.5-1v-0.8C76.5,37.9,72.8,36.6,72.8,36.6z M50.5,33.8c0,0-1.4,3.9-1.4,3.9l2.7,0
				L50.5,33.8z M56.7,43.7c-1.5-0.1-3-0.2-4.5-0.2v-2.1l1,0c0,0-0.7-1.9-0.7-1.9l-4.1,0l-0.7,1.9c0,0,1,0,1,0v2.1
				c-1.4,0-2.9,0.1-4.3,0.3v-2.1l1-0.1c0,0,3.7-10.4,3.7-10.4c1,0,1.9,0,2.9,0l3.6,10.4c0,0,0.8,0.1,1.1,0.1V43.7z"/>
		</g>
	</g>
</g>
<g>
	<path class="st2" d="M360,59.2v0.6h-1.1v3h-0.7v-3H357v-0.6H360z M363.9,62.7l-0.1-2.1c0-0.3,0-0.6,0-1h0c-0.1,0.3-0.2,0.7-0.3,1.1
		l-0.6,2H362l-0.6-2c-0.1-0.3-0.2-0.7-0.2-1h0c0,0.3,0,0.7,0,1l-0.1,2.1h-0.7l0.3-3.6h1.1l0.6,1.7c0.1,0.3,0.1,0.5,0.2,0.9h0
		c0.1-0.3,0.2-0.6,0.2-0.9l0.6-1.8h1l0.3,3.6H363.9z"/>
</g>
</svg>
